<svg width="282" height="98" viewBox="0 0 282 98" fill="none" xmlns="http://www.w3.org/2000/svg">
<g clip-path="url(#clip0_11_2)">
<path d="M18.3032 67.0163C16.0893 68.8803 14.0682 71.113 12.2399 73.7142C10.4061 76.2517 8.95759 78.7876 7.89443 81.3219C6.82568 83.7924 6.25026 86.0271 6.16815 88.0259C6.14979 90.019 6.84632 91.3715 8.25772 92.0832C9.40293 92.6897 10.9387 92.6196 12.8649 91.8728C14.7856 91.0624 16.8322 89.8554 19.0047 88.2519C21.1716 86.5847 23.3481 84.6597 25.5342 82.4769C27.7785 80.2247 29.7968 77.9602 31.5892 75.6833C33.3815 73.4064 34.8316 71.2559 35.9394 69.2316C37.0416 67.1436 37.5979 65.4246 37.6083 64.0745C37.6768 62.6551 37.2867 61.5008 36.438 60.6113C35.5837 59.6582 34.4245 58.8923 32.9605 58.3137C31.5547 57.6657 29.9688 57.162 28.2027 56.8026C26.4311 56.3794 24.6332 56.0227 22.8089 55.7326C21.0429 55.3732 19.3406 55.0082 17.7021 54.6376C16.0635 54.267 14.6716 53.7784 13.5264 53.1719C12.2481 52.5128 11.2137 51.7039 10.4231 50.7451C9.62696 49.7226 9.0193 48.6515 8.60011 47.5318C8.18093 46.4121 7.91834 45.2465 7.81236 44.0352C7.77014 42.8182 7.861 41.6539 8.08496 40.5421C8.41094 38.3935 9.38006 36.2529 10.9923 34.1203C12.6683 31.9821 14.6217 30.0766 16.8524 28.4038C19.0775 26.6672 21.4317 25.3049 23.9151 24.3167C26.3928 23.2647 28.6629 22.777 30.7255 22.8535C32.666 23.005 34.3074 23.4075 35.6494 24.061C36.9915 24.7145 38.0622 25.9378 38.8615 27.731C39.4417 29.2221 39.5839 30.8479 39.2882 32.6084C38.9925 34.3688 38.4362 36.0879 37.6193 37.7654C36.8606 39.3737 35.9341 40.9002 34.8399 42.3451C33.7401 43.7262 32.6789 44.8149 31.6564 45.611C31.1799 46.0382 30.663 46.3725 30.106 46.614C29.5489 46.8554 29.0181 47.0303 28.5136 47.1387C28.0092 47.2471 27.592 47.2515 27.262 47.1519C26.9958 47.0467 26.9153 46.861 27.0205 46.5948C27.6685 45.189 28.3344 43.621 29.0182 41.8908C29.7657 40.155 30.4523 38.4567 31.0779 36.7959C31.698 35.0713 32.2017 33.4853 32.589 32.0381C32.9764 30.5908 33.1975 29.4472 33.2525 28.6072C33.3187 27.8947 33.094 27.5289 32.5783 27.5098C32.1265 27.4851 31.5582 27.599 30.8736 27.8516C29.6957 28.3402 28.2823 29.0741 26.6334 30.0536C25.0483 31.0274 23.4743 32.1288 21.9114 33.3577C20.4067 34.5173 19.0698 35.7585 17.9007 37.0814C16.7897 38.335 16.1514 39.483 15.9856 40.5255C15.7226 41.1909 15.6799 41.805 15.8576 42.3676C16.0991 42.9247 16.4016 43.4443 16.765 43.9265C17.1865 44.3393 17.6372 44.7175 18.117 45.0609C18.6549 45.3351 19.1263 45.583 19.5312 45.8045C21.3474 46.7378 23.1525 47.5435 24.9464 48.2217C26.7348 48.8362 28.465 49.52 30.137 50.2732C31.8672 50.957 33.542 51.742 35.1614 52.6282C36.7752 53.4507 38.3129 54.5047 39.7745 55.7902C42.0044 57.7794 43.4887 60.0587 44.2274 62.6281C45.0299 65.1919 45.0964 67.788 44.427 70.4164C43.6858 73.6934 42.2404 77 40.091 80.336C37.9998 83.6027 35.4953 86.5522 32.5776 89.1845C29.6599 91.8168 26.5355 93.9212 23.2042 95.4975C19.9366 97.0683 16.7879 97.7935 13.7578 97.6731C10.6585 97.4945 8.08273 96.692 6.03059 95.2654C3.97845 93.8388 2.50809 91.7189 1.61952 88.9056C0.886345 86.4 0.706261 83.9745 1.07926 81.629C1.45226 79.2836 2.22454 77.096 3.39608 75.0661C4.56763 73.0363 6.01094 71.1754 7.726 69.4835C9.44107 67.7916 11.2769 66.3782 13.2334 65.2434C14.389 64.4998 15.5904 63.9129 16.8377 63.4825C18.0793 62.9885 19.3293 62.59 20.5877 62.2872C21.7768 61.9262 22.3881 61.9369 22.4215 62.3195C22.4494 62.6382 22.2016 63.1096 21.678 63.7336C21.1544 64.3577 20.506 65.0247 19.733 65.7348C19.0181 66.3755 18.5415 66.8027 18.3032 67.0163ZM60.9768 83.4234C60.4421 83.9199 59.8491 84.4858 59.198 85.1209C58.5413 85.6924 57.8181 86.2375 57.0283 86.7563C56.2329 87.2113 55.3682 87.6082 54.4342 87.9469C53.5583 88.2163 52.602 88.2999 51.5651 88.1979C50.7889 88.1373 50.0653 87.9437 49.3942 87.6169C48.7176 87.2264 48.0673 86.7693 47.4433 86.2457C46.8193 85.7221 46.3961 84.924 46.1738 83.8512C45.9515 82.7785 45.8443 81.9206 45.8522 81.2775C46.026 79.5919 46.3189 77.7996 46.731 75.9004C47.143 74.0013 47.6853 72.1229 48.358 70.2652C49.5041 67.2097 51.0605 64.4395 53.0275 61.9546C54.9944 59.4697 57.4801 57.7746 60.4846 56.8693C61.4824 56.525 62.5316 56.4011 63.6322 56.4976C64.791 56.5247 65.8099 56.7889 66.6889 57.2902C67.5679 57.7915 68.2697 58.4689 68.794 59.3224C69.3128 60.1122 69.4894 61.0283 69.3236 62.0707C69.2295 62.4644 69.1036 62.8609 68.9458 63.2602C68.8518 63.6539 68.6884 63.9894 68.4557 64.2667C68.2867 64.5385 68.1094 64.7146 67.9237 64.7951C67.7324 64.8118 67.5244 64.6373 67.2997 64.2715C67.2192 64.0858 67.1013 63.8391 66.9459 63.5315C66.8486 63.1546 66.6904 62.8151 66.4713 62.513C66.2465 62.1472 65.9317 61.8535 65.5269 61.632C65.1802 61.3411 64.72 61.2207 64.1462 61.2709C62.9348 61.3769 61.631 62.2619 60.2347 63.9259C58.8328 65.5262 57.5198 67.4078 56.2957 69.5707C55.066 71.6699 54.0303 73.7842 53.1887 75.9137C52.3415 77.9794 51.835 79.5334 51.6692 80.5758C51.4317 82.267 51.5417 83.1568 51.9991 83.2452C52.451 83.2699 53.1217 82.8579 54.0111 82.0092C54.8949 81.0967 55.8811 79.8861 56.9698 78.3775C58.0585 76.8689 59.0861 75.3977 60.0529 73.964C61.014 72.4665 61.8325 71.1743 62.5083 70.0872C63.2423 68.9308 63.6384 68.318 63.6966 68.2487C64.4697 67.5386 65.2734 67.1792 66.1078 67.1704C66.9422 67.1616 67.6714 67.4191 68.2954 67.9427C68.9776 68.397 69.4506 69.0301 69.7144 69.8422C70.0364 70.585 70.0423 71.3875 69.7323 72.2498C69.3753 73.309 68.8756 74.5734 68.2332 76.0429C67.6546 77.5069 67.3171 78.7892 67.2206 79.8898C67.1744 81.5642 67.4605 82.6313 68.0789 83.0912C68.6973 83.551 69.7465 83.4271 71.2265 82.7195C72.3932 82.1034 73.5903 81.0993 74.8176 79.707C76.0393 78.251 77.2236 76.734 78.3705 75.156C79.5811 73.5725 80.7016 72.0611 81.7321 70.6218C82.7626 69.1825 83.6324 68.1106 84.3417 67.4061C84.5163 67.1981 84.7227 66.9873 84.961 66.7737C85.2575 66.4908 85.5069 66.4048 85.7093 66.5155C86.0393 66.6152 86.2154 66.7925 86.2377 67.0475C86.3182 67.2332 86.3696 67.4536 86.3919 67.7086C85.7416 69.8213 84.929 71.9161 83.9544 73.9929C82.9797 76.0698 81.8344 78.0331 80.5186 79.8828C79.261 81.6632 77.7982 83.3009 76.1301 84.796C74.5203 86.2217 72.7287 87.4064 70.7554 88.3499C69.5193 88.9078 68.3829 89.1357 67.346 89.0337C66.3148 88.9954 65.3596 88.7256 64.4806 88.2243C63.6016 87.7231 62.868 87.0484 62.2798 86.2005C61.6917 85.3525 61.2574 84.4268 60.9768 83.4234ZM99.0205 65.351C96.6049 68.5818 94.3514 71.8305 92.2602 75.0972C90.2327 78.3584 88.2371 81.6167 86.2734 84.8722C85.8024 85.3631 85.3728 85.5935 84.9847 85.5632C84.5966 85.5329 84.261 85.3695 83.9781 85.073C83.6315 84.7821 83.3748 84.4191 83.2083 83.984C82.9724 83.4907 82.8058 83.0555 82.7086 82.6786C82.4807 81.5421 82.3719 80.2989 82.3823 78.9488C82.3871 77.535 82.4365 76.6313 82.5306 76.2376C82.6908 75.1314 82.9327 73.8575 83.2562 72.4158C83.5161 70.9797 83.8078 69.5408 84.1313 68.0991C84.4493 66.5936 84.741 65.1547 85.0064 63.7824C85.33 62.3407 85.6357 61.0612 85.9234 59.9439C86.1115 59.1565 86.5187 58.6711 87.1451 58.4878C87.766 58.2408 88.38 58.2834 88.9873 58.6158C89.6527 58.8788 90.1811 59.4108 90.5724 60.2117C91.0275 61.0071 91.1833 62.0535 91.0398 63.3509C90.8963 64.6483 90.721 65.9486 90.5138 67.2516C90.3065 68.5546 90.1284 69.823 89.9794 71.0567C91.6498 68.8547 93.2828 66.5917 94.8783 64.2678C96.532 61.8746 98.1248 59.5188 99.6565 57.2005C100.435 56.5542 101.285 56.3514 102.205 56.5921C103.126 56.8327 103.856 57.4755 104.398 58.5203C105.008 59.6233 105.334 60.7833 105.377 62.0002C105.419 63.2172 105.36 64.3787 105.2 65.4849C106.881 63.4105 108.884 61.34 111.209 59.2735C113.534 57.207 115.834 55.5924 118.109 54.4297C119.218 53.883 120.264 53.7272 121.248 53.9623C122.233 54.1974 123.115 54.7306 123.894 55.5618C124.668 56.3293 125.27 57.3367 125.7 58.5839C126.189 59.7618 126.46 61.023 126.513 62.3675C125.887 64.0283 125.291 65.6545 124.723 67.246C124.15 68.7738 123.641 70.2959 123.196 71.8125C122.75 73.3291 122.4 74.8374 122.146 76.3372C121.956 77.8315 121.959 79.341 122.157 80.8655C122.631 81.1453 123.347 80.8899 124.306 80.0993C125.329 79.3031 126.459 78.2727 127.698 77.0079C128.936 75.7432 130.201 74.4119 131.492 73.014C132.847 71.6106 134.027 70.4152 135.033 69.4278C137.939 66.668 139.569 65.4654 139.921 65.82C140.273 66.1747 139.506 67.6873 137.62 70.3579C135.792 72.9591 133.833 75.5396 131.744 78.0994C129.719 80.6536 127.507 82.903 125.107 84.8476C124.328 85.4939 123.397 85.8645 122.313 85.9593C121.235 86.1179 120.134 86.0214 119.011 85.6699C117.958 85.3767 117.012 84.8491 116.175 84.0872C115.332 83.2615 114.79 82.2167 114.551 80.9527C114.215 79.3118 114.157 77.5501 114.378 75.6677C114.663 73.7797 115.077 71.9125 115.623 70.0659C116.162 68.1556 116.803 66.3007 117.545 64.5012C118.287 62.7017 118.976 61.0353 119.613 59.5019C119.377 59.0086 118.661 59.264 117.464 60.2682C116.325 61.203 114.93 62.5136 113.278 64.1999C111.627 65.8863 109.897 67.7722 108.088 69.8578C106.279 71.9434 104.615 73.8557 103.097 75.5947C102.451 76.2936 101.946 76.7554 101.58 76.9802C101.272 77.1356 100.991 77.2244 100.736 77.2467C100.098 77.3025 99.6392 76.8287 99.3587 75.8253C99.0726 74.7582 98.871 73.5552 98.7538 72.2163C98.6949 70.8081 98.7052 69.4581 98.785 68.1662C98.8591 66.8106 98.9376 65.8722 99.0205 65.351ZM149.14 75.7102C148.605 76.2067 148.012 76.7725 147.361 77.4077C146.705 77.9791 145.981 78.5242 145.192 79.043C144.396 79.498 143.531 79.8949 142.597 80.2336C141.722 80.503 140.765 80.5866 139.728 80.4846C138.952 80.424 138.229 80.2304 137.557 79.9036C136.881 79.5131 136.231 79.056 135.607 78.5324C134.983 78.0088 134.559 77.2107 134.337 76.138C134.115 75.0653 134.008 74.2073 134.015 73.5642C134.189 71.8786 134.482 70.0863 134.894 68.1871C135.306 66.288 135.849 64.4096 136.521 62.5519C137.667 59.4964 139.224 56.7262 141.191 54.2413C143.158 51.7564 145.643 50.0613 148.648 49.156C149.646 48.8117 150.695 48.6878 151.795 48.7843C152.954 48.8114 153.973 49.0756 154.852 49.5769C155.731 50.0782 156.433 50.7556 156.957 51.6091C157.476 52.3989 157.653 53.315 157.487 54.3574C157.393 54.7511 157.267 55.1476 157.109 55.5469C157.015 55.9406 156.852 56.2761 156.619 56.5534C156.45 56.8252 156.273 57.0013 156.087 57.0818C155.896 57.0986 155.688 56.924 155.463 56.5582C155.382 56.3725 155.264 56.1259 155.109 55.8182C155.012 55.4413 154.854 55.1018 154.635 54.7997C154.41 54.4339 154.095 54.1402 153.69 53.9187C153.343 53.6278 152.883 53.5074 152.309 53.5576C151.098 53.6636 149.794 54.5486 148.398 56.2127C146.996 57.8129 145.683 59.6945 144.459 61.8574C143.229 63.9566 142.194 66.0709 141.352 68.2004C140.505 70.2661 139.998 71.8201 139.832 72.8625C139.595 74.5537 139.705 75.4435 140.162 75.5319C140.614 75.5567 141.285 75.1446 142.174 74.2959C143.058 73.3834 144.044 72.1728 145.133 70.6642C146.222 69.1556 147.249 67.6844 148.216 66.2507C149.177 64.7532 149.996 63.461 150.672 62.3739C151.406 61.2176 151.802 60.6047 151.86 60.5354C152.633 59.8253 153.437 59.4659 154.271 59.4571C155.105 59.4484 155.835 59.7058 156.459 60.2294C157.141 60.6837 157.614 61.3169 157.878 62.129C158.2 62.8717 158.206 63.6743 157.896 64.5366C157.538 65.5957 157.039 66.8601 156.396 68.3296C155.818 69.7936 155.48 71.0759 155.384 72.1765C155.338 73.8509 155.624 74.9181 156.242 75.3779C156.861 75.8378 157.91 75.7139 159.39 75.0062C160.556 74.3901 161.754 73.386 162.981 71.9937C164.203 70.5377 165.387 69.0207 166.534 67.4427C167.744 65.8592 168.865 64.3478 169.895 62.9085C170.926 61.4692 171.796 60.3973 172.505 59.6928C172.68 59.4848 172.886 59.274 173.124 59.0605C173.421 58.7775 173.67 58.6915 173.873 58.8022C174.203 58.9019 174.379 59.0792 174.401 59.3342C174.481 59.5199 174.533 59.7403 174.555 59.9953C173.905 62.108 173.092 64.2028 172.118 66.2797C171.143 68.3565 169.998 70.3198 168.682 72.1695C167.424 73.9499 165.961 75.5876 164.293 77.0827C162.683 78.5084 160.892 79.6931 158.919 80.6367C157.683 81.1945 156.546 81.4224 155.509 81.3204C154.478 81.2821 153.523 81.0124 152.644 80.5111C151.765 80.0098 151.031 79.3351 150.443 78.4872C149.855 77.6392 149.421 76.7135 149.14 75.7102ZM190.578 51.2696C190.566 51.1421 190.59 51.0437 190.648 50.9744C190.643 50.9106 190.672 50.8759 190.735 50.8704C192.344 46.4895 193.934 42.2709 195.507 38.2144C197.137 34.0886 198.782 30.1221 200.44 26.3151C202.162 22.5025 203.96 18.8118 205.832 15.2431C207.768 11.6687 209.839 8.1789 212.047 4.77354C213.31 3.05691 214.364 2.25797 215.21 2.37673C216.119 2.4899 216.816 3.10357 217.298 4.21771C217.84 5.26253 218.209 6.54723 218.407 8.0718C218.604 9.59638 218.681 10.8424 218.637 11.8099C218.027 15.8465 217.066 19.9137 215.754 24.0117C214.506 28.104 213.034 32.2159 211.34 36.3473C209.64 40.4149 207.781 44.4965 205.762 48.592C203.743 52.6876 201.693 56.7859 199.61 60.887C199.325 61.2974 199.106 61.7342 198.954 62.1972C198.86 62.5909 198.771 63.0483 198.688 63.5695C198.611 64.1545 198.524 64.9973 198.428 66.0979C198.39 67.1291 198.389 68.2214 198.425 69.3746C198.526 70.5222 198.714 71.5658 198.988 72.5054C199.263 73.445 199.667 74.02 200.199 74.2304C200.998 74.546 202.108 74.3847 203.53 73.7463C204.946 73.0442 206.436 72.0787 207.998 70.8498C209.561 69.6209 211.11 68.2327 212.645 66.685C214.244 65.1317 215.593 63.6646 216.693 62.2835C216.809 62.1448 217.003 62.1599 217.275 62.3289C217.541 62.4341 217.752 62.6405 217.907 62.9481C218.127 63.2502 218.224 63.6271 218.199 64.079C218.233 64.4615 218.043 64.8636 217.63 65.2852C216.275 66.6886 214.6 68.4734 212.606 70.6395C210.669 72.7362 208.594 74.7167 206.38 76.5807C204.23 78.4392 202.075 79.8805 199.916 80.9045C197.763 81.9923 195.853 82.1916 194.186 81.5022C192.653 80.8654 191.492 79.7142 190.704 78.0485C189.985 76.4411 189.507 74.6519 189.271 72.681C189.029 70.6464 188.919 68.6644 188.943 66.7349C189.025 64.7362 189.112 63.1546 189.203 61.9903C189.086 62.1289 188.976 62.3314 188.87 62.5975C188.823 62.7944 188.744 62.994 188.634 63.1964C187.83 64.2946 186.919 65.6271 185.9 67.1939C184.875 68.697 183.714 70.1156 182.417 71.4496C181.184 72.7782 179.831 73.8281 178.356 74.5996C176.882 75.371 175.323 75.5395 173.679 75.1052C172.742 74.6732 171.923 74.1345 171.225 73.4889C170.456 72.7852 170.019 71.8277 169.913 70.6163C169.707 68.2573 169.976 65.8246 170.72 63.3182C171.401 60.8173 172.457 58.5727 173.889 56.5843C175.316 54.5322 177.066 52.8694 179.139 51.5959C181.206 50.2586 183.491 49.5768 185.994 49.5506C186.707 49.6167 187.425 49.7466 188.149 49.9403C188.93 50.0646 189.601 50.3914 190.162 50.9206L190.578 51.2696ZM215.591 15.5456C212.116 22.0814 209.1 28.7375 206.545 35.514C203.99 42.2905 201.837 49.2567 200.086 56.4125C201.318 53.6064 202.772 50.3955 204.447 46.7798C206.186 43.1584 207.856 39.4789 209.456 35.7412C211.051 31.9397 212.434 28.2853 213.604 24.7779C214.77 21.2068 215.432 18.1293 215.591 15.5456ZM176.826 67.0241L177.043 67.2943C179.06 65.3832 181.08 63.504 183.102 61.6567C185.183 59.74 187.331 57.8497 189.545 55.9856C188.15 55.4652 186.678 55.5297 185.129 56.1792C183.638 56.7594 182.241 57.6846 180.939 58.955C179.695 60.156 178.659 61.5315 177.831 63.0816C177.061 64.5623 176.726 65.8765 176.826 67.0241ZM236.686 53.9813C234.425 56.0422 232.225 58.0657 230.086 60.0517C228.005 61.9683 226.138 64.1233 224.484 66.5165C223.518 67.9502 222.62 69.4421 221.792 70.9922C221.022 72.4729 220.415 73.9716 219.969 75.4882C219.515 76.1704 218.92 76.3509 218.185 76.0297C216.555 75.0159 215.375 73.6416 214.645 71.9066C213.915 70.1716 213.495 68.3131 213.386 66.3311C213.207 64.2909 213.258 62.2949 213.537 60.3432C213.746 58.3332 214.01 56.5756 214.328 55.0701C215.025 51.283 215.84 47.3891 216.775 43.3884C217.768 39.3183 218.831 35.3065 219.962 31.3528C221.158 27.3935 222.396 23.559 223.678 19.8492C225.023 16.1338 226.327 12.679 227.589 9.48484C228.279 7.81842 229.049 6.33768 229.899 5.04264C230.749 3.7476 231.651 2.67292 232.604 1.81859C233.139 1.32209 233.693 1.04874 234.267 0.998539C234.899 0.879004 235.481 0.924438 236.014 1.13484C236.546 1.34524 236.994 1.69153 237.357 2.17369C237.779 2.58651 238.044 3.04516 238.152 3.54964C238.775 6.2577 238.764 9.43874 238.12 13.0928C237.476 16.7468 236.484 20.4634 235.144 24.2425C233.799 27.9579 232.246 31.4988 230.484 34.8651C228.781 38.1621 227.118 40.8131 225.495 42.8183C225.262 43.0956 225.151 43.298 225.162 43.4255C224.376 46.1926 223.713 48.8847 223.171 51.5019C222.629 54.119 222.023 56.7418 221.353 59.3702C221.287 60.0826 221.192 60.8298 221.068 61.6116C221.007 62.3878 221.01 63.1585 221.077 63.9236C221.695 62.9059 222.443 61.9089 223.321 60.9326C225.13 58.847 227.043 56.8487 229.06 54.9376C231.078 53.0265 233.274 51.3246 235.649 49.832C236.624 49.2327 237.579 48.7637 238.513 48.425C239.505 48.017 240.525 47.9277 241.573 48.1572C242.419 48.276 243.275 48.5223 244.143 48.896C245.092 49.4555 245.597 50.0859 245.658 50.7872C245.783 51.483 245.757 52.2883 245.58 53.2032C245.149 55.618 244.546 58.2726 243.771 61.1672C243.06 64.0561 242.37 66.8148 241.701 69.4431C241.026 72.0077 240.448 74.2105 239.966 76.0514C239.49 77.9562 239.333 79.0942 239.494 79.4656C239.869 80.0753 240.477 80.0542 241.319 79.4023C242.226 78.7448 243.26 77.7227 244.424 76.336C245.651 74.9437 246.952 73.2881 248.326 71.369C249.764 69.4444 251.169 67.5226 252.543 65.6035C253.976 63.6151 255.355 61.7598 256.682 60.0376C258.003 58.2517 259.132 56.8359 260.069 55.7903C260.825 54.8889 261.496 54.4769 262.081 54.5542C262.666 54.6315 262.82 55.2926 262.543 56.5375C262.111 57.4747 261.397 58.8542 260.4 60.676C259.397 62.4341 258.188 64.403 256.773 66.5826C255.421 68.7567 253.945 70.9738 252.344 73.234C250.743 75.4941 249.125 77.563 247.49 79.4406C245.919 81.3126 244.384 82.8603 242.885 84.0836C241.392 85.3707 240.071 86.0644 238.924 86.1648C237.776 86.2652 236.673 86.1369 235.614 85.7798C234.618 85.4172 233.734 84.8522 232.96 84.0847C232.191 83.381 231.569 82.5039 231.091 81.4535C230.683 80.4613 230.487 79.322 230.503 78.0358C230.522 77.5201 230.57 76.9698 230.648 76.3849C230.731 75.8637 230.834 75.2122 230.959 74.4303C231.498 72.52 231.974 70.6153 232.386 68.7162C232.862 66.8115 233.37 64.904 233.909 62.9937C234.695 60.2267 235.791 57.3361 237.198 54.322L237.181 54.1308C237.17 54.0033 237.005 53.9534 236.686 53.9813ZM225.584 39.4376C226.119 38.9411 226.832 37.915 227.724 36.3594C228.68 34.7981 229.61 32.95 230.516 30.815C231.485 28.6744 232.411 26.409 233.294 24.019C234.235 21.5596 234.993 19.2126 235.569 16.9779C236.208 14.7377 236.612 12.7429 236.78 10.9936C237.012 9.23869 236.868 7.96635 236.35 7.17656C235.782 8.76807 234.986 11.0541 233.962 14.0347C232.996 16.946 231.981 20.0222 230.915 23.2634C229.849 26.5046 228.805 29.6155 227.78 32.5961C226.82 35.5712 226.088 37.8516 225.584 39.4376ZM280.09 49.7986L281.137 48.5505L281.232 48.5422L281.249 48.7334C281.505 50.1887 281.475 51.3156 281.159 52.1141C280.838 52.8489 280.68 53.2482 280.686 53.3119C280.132 54.3241 279.38 55.6426 278.43 57.2676C277.475 58.8288 276.461 60.4594 275.389 62.1593C274.375 63.7898 273.385 65.322 272.418 66.7557C271.446 68.1256 270.666 69.1254 270.079 69.755C269.392 70.7145 268.635 71.6159 267.81 72.459C267.513 72.742 267.087 73.0042 266.529 73.2456C266.036 73.4815 265.505 73.6564 264.937 73.7704C264.374 73.9481 263.803 74.0302 263.224 74.0166C262.708 73.9975 262.28 73.8744 261.939 73.6472C260.794 73.0407 259.892 72.2844 259.235 71.3783C258.508 70.414 258.095 69.358 257.994 68.2104C257.496 64.7205 257.503 61.1222 258.013 57.4156C258.455 53.6508 259.087 50.2227 259.908 47.1313C260.149 46.2108 260.514 45.2473 261.005 44.2408C261.528 43.6168 262.184 43.3988 262.971 43.5869C263.758 43.775 264.475 44.2584 265.122 45.037C265.826 45.7463 266.356 46.6636 266.711 47.7889C267.131 48.9086 267.199 50.059 266.917 51.2401C266.693 52.3519 266.498 53.4289 266.332 54.4714C266.161 55.45 265.963 56.4952 265.739 57.607C265.657 58.1282 265.498 58.8809 265.262 59.8651C265.091 60.8438 264.893 61.889 264.669 63.0007C264.44 64.0487 264.24 65.0621 264.068 66.0407C263.897 67.0194 263.802 67.7665 263.782 68.2822C263.739 69.2497 264.016 69.4824 264.614 68.9803C265.213 68.4782 266.007 67.6378 266.996 66.4592C269.376 63.5527 271.636 60.753 273.778 58.0601C275.913 55.3035 278.017 52.5496 280.09 49.7986ZM265.697 39.4938C265.289 39.9791 264.971 40.007 264.74 39.5774C263.8 38.3748 263.141 37.0834 262.763 35.703C262.385 34.3227 262.39 32.9089 262.777 31.4616C262.96 30.6105 263.443 29.8936 264.228 29.3111C265.07 28.6592 265.85 28.3982 266.568 28.5281C266.962 28.6221 267.396 28.809 267.87 29.0888C268.339 29.3047 268.653 29.5984 268.814 29.9698C269.411 31.6522 269.301 33.3322 268.484 35.0097C267.731 36.6817 266.802 38.1764 265.697 39.4938Z" fill="white"/>
</g>
<defs>
<clipPath id="clip0_11_2">
<rect width="282" height="98" fill="white"/>
</clipPath>
</defs>
</svg>
